<svg
                    xmlns="http://www.w3.org/2000/svg"
                    width="70"
                    height="40"
                    viewBox="0 0 70 40"
                    fill="none"
                  >
                    <path
                      d="M48.6374 7.0046L42.6594 7L37.8636 14.9502L35.0411 19.6545L32.1774 14.9502L27.3423 7.00238L21.3568 7.03478C21.1166 7.03593 20.8809 7.09968 20.6737 7.21953C20.0242 7.59518 19.8066 8.41858 20.1877 9.0588L33.8503 32.0501C34.0952 32.4614 34.5429 32.7142 35.0268 32.7143C35.5115 32.7139 35.9609 32.46 36.2053 32.0475L49.8146 9.02599C49.9357 8.82098 49.9997 8.58799 50 8.35073C50.0008 7.60813 49.3909 7.0055 48.6374 7.0046Z"
                      fill="#C2C1FF"
                    />
                    <rect
                      x="2"
                      y="2"
                      width="66"
                      height="36"
                      rx="6"
                      stroke="url(#paint0_linear_21_22)"
                      strokeWidth="4"
                    />
                    <defs>
                      <linearGradient
                        id="paint0_linear_21_22"
                        x1="4.52002e-07"
                        y1="6"
                        x2="72.167"
                        y2="30.206"
                        gradientUnits="userSpaceOnUse"
                      >
                        <stop stopColor="#F43F5E" />
                        <stop offset="1" stopColor="#4F46E5" />
                      </linearGradient>
                    </defs>
                  </svg>